<svg width="279" height="430" viewBox="0 0 279 430" fill="none" xmlns="http://www.w3.org/2000/svg">
<path d="M3 205.5V90.5H69.5V206C69.5 235 75.3333 259.167 87 278.5H116.5C127.5 259.5 133 235.333 133 206V90.5H199.5V202C199.5 227 196.167 249 189.5 268C183.167 287 172.667 308.5 158 332.5L124.5 387C118.5 397.333 112.167 405 105.5 410C98.8333 415 90.1667 418.667 79.5 421H0.5V368.5H54.5C61.5 366.5 67.3333 363 72 358C76.6667 353 81.5 345.833 86.5 336.5L89.5 331H55C39 318 26.3333 300.5 17 278.5C7.66667 256.167 3 231.833 3 205.5Z" fill="black"/>
<path d="M215.4 37.04V0.239994H236.68V37.2C236.68 46.48 238.547 54.2133 242.28 60.4H251.72C255.24 54.32 257 46.5867 257 37.2V0.239994H278.28V35.92C278.28 43.92 277.213 50.96 275.08 57.04C273.053 63.12 269.693 70 265 77.68L254.28 95.12C252.36 98.4267 250.333 100.88 248.2 102.48C246.067 104.08 243.293 105.253 239.88 106H214.6V89.2H231.88C234.12 88.56 235.987 87.44 237.48 85.84C238.973 84.24 240.52 81.9467 242.12 78.96L243.08 77.2H232.04C226.92 73.04 222.867 67.44 219.88 60.4C216.893 53.2533 215.4 45.4667 215.4 37.04Z" fill="#D8B4FE"/>
</svg>
